<?xml version="1.0" standalone="no"?>
<!DOCTYPE svg PUBLIC "-//W3C//DTD SVG 20010904//EN"
 "http://www.w3.org/TR/2001/REC-SVG-20010904/DTD/svg10.dtd">
<svg version="1.0" xmlns="http://www.w3.org/2000/svg"
 width="2052.000000pt" height="2052.000000pt" viewBox="0 0 2052.000000 2052.000000"
 preserveAspectRatio="xMidYMid meet">
<metadata>
Created by potrace 1.14, written by Peter Selinger 2001-2017
</metadata>
<g transform="translate(0.000000,2052.000000) scale(0.100000,-0.100000)"
fill="#000000" stroke="none">
<path d="M10005 15869 c-104 -5 -217 -14 -250 -19 -78 -14 -85 -15 -183 -25
-45 -4 -85 -12 -88 -16 -3 -5 -20 -9 -38 -9 -36 0 -185 -36 -281 -68 -33 -11
-107 -35 -165 -52 -58 -18 -125 -40 -150 -50 -25 -9 -67 -23 -95 -30 -56 -14
-161 -48 -246 -79 -84 -30 -312 -135 -339 -157 -8 -6 -53 -31 -100 -56 -206
-108 -459 -257 -498 -292 -33 -29 -53 -71 -45 -93 16 -45 69 -96 127 -123 34
-16 72 -31 86 -34 18 -3 15 -4 -10 -4 -60 0 -74 -2 -66 -9 4 -4 26 -8 49 -9
23 -1 43 -7 45 -13 2 -6 13 -11 24 -11 13 0 18 5 15 14 -3 8 2 13 16 12 31 0
117 25 117 35 0 9 122 49 150 49 11 0 25 8 32 18 19 27 39 36 47 23 4 -6 15
-9 24 -5 9 3 14 10 11 15 -3 5 5 9 16 9 13 0 24 8 27 20 4 16 17 23 36 19 1 0
18 7 38 15 20 8 39 13 42 10 3 -3 10 4 17 15 6 12 15 21 21 21 6 0 23 9 38 19
15 11 50 25 77 32 59 14 124 46 124 59 0 6 11 10 24 10 13 0 29 7 36 15 8 10
30 15 62 15 30 0 47 4 43 10 -3 6 -1 10 5 10 6 0 20 8 31 19 11 10 42 21 70
24 27 3 59 13 71 22 13 8 37 15 55 15 18 0 33 5 33 11 0 5 4 8 9 5 5 -4 11 -2
13 3 4 11 43 19 113 21 39 2 44 4 25 9 -20 6 -13 10 40 19 36 7 84 13 107 15
24 2 46 7 50 12 5 4 2 5 -4 1 -7 -4 -13 -3 -13 2 0 6 42 11 97 11 65 1 99 5
105 14 4 6 27 12 50 13 24 1 61 6 83 12 22 7 107 14 189 17 81 3 153 8 159 12
11 7 181 5 727 -9 62 -2 114 -8 128 -16 12 -7 22 -9 22 -4 0 11 38 13 45 1 4
-5 21 -9 38 -9 18 0 45 -7 61 -15 35 -18 91 -21 128 -6 21 8 27 8 25 -2 -1 -9
19 -12 73 -12 42 0 84 -5 95 -12 18 -11 16 -12 -12 -7 -23 5 -33 3 -33 -6 0
-7 6 -10 13 -7 7 3 24 -1 38 -9 13 -7 38 -13 54 -12 l30 1 -28 4 c-15 2 -25 9
-22 14 4 5 1 9 -6 9 -7 0 -10 3 -7 6 3 3 14 1 25 -4 10 -6 44 -16 76 -23 67
-14 83 -28 35 -30 l-33 -1 30 -7 c17 -4 31 -3 33 1 5 12 62 10 62 -2 0 -5 -6
-10 -12 -10 -7 0 -4 -6 7 -12 11 -6 23 -16 27 -22 4 -6 10 -7 14 -3 4 4 -1 16
-10 26 -17 19 -17 19 3 14 25 -6 50 -33 31 -33 -8 0 -11 -2 -8 -5 3 -3 17 0
32 6 23 11 29 10 44 -7 9 -10 10 -13 2 -6 -17 15 -40 16 -40 2 0 -5 6 -10 14
-10 8 0 16 -8 18 -17 3 -15 6 -14 27 7 13 14 21 19 17 13 -4 -7 -3 -13 3 -13
6 0 8 -7 5 -15 -5 -11 2 -15 26 -15 23 0 33 -5 37 -20 3 -11 13 -20 22 -20 9
0 30 -9 46 -20 17 -11 36 -20 44 -20 7 0 77 -31 155 -69 77 -37 158 -71 179
-75 24 -5 37 -12 37 -23 0 -9 6 -13 15 -9 9 3 18 -1 22 -9 3 -10 13 -14 27
-10 11 2 15 2 8 -1 -22 -10 27 -44 65 -44 18 0 33 -4 33 -8 0 -4 25 -21 55
-37 30 -17 55 -33 55 -37 0 -5 7 -8 15 -8 8 0 25 -12 39 -26 16 -18 31 -25 44
-22 13 4 23 0 26 -9 4 -8 12 -13 20 -10 9 3 16 -3 19 -15 4 -14 11 -19 21 -15
10 4 16 1 16 -8 0 -9 10 -15 25 -15 14 0 28 -7 31 -15 4 -8 11 -12 18 -8 7 4
7 1 -1 -7 -17 -18 23 -53 53 -47 17 3 21 0 16 -11 -4 -11 -1 -14 11 -9 10 4
24 -4 38 -23 13 -16 27 -26 31 -24 4 3 10 -7 14 -21 5 -22 11 -25 49 -25 29 0
45 -5 49 -15 3 -8 4 -17 3 -18 -4 -6 31 -37 41 -37 15 0 72 -34 72 -42 0 -5 6
-8 13 -8 7 0 33 -18 57 -40 30 -26 39 -40 28 -40 -9 0 -19 6 -21 13 -4 9 -6 9
-6 -1 -1 -7 11 -18 27 -25 15 -6 34 -21 43 -32 9 -11 33 -27 52 -34 28 -11 34
-18 27 -30 -11 -21 10 -50 38 -54 12 -2 25 -6 28 -10 4 -4 14 -7 23 -7 9 0 30
-15 46 -32 17 -18 22 -26 13 -19 -11 8 -18 9 -18 3 0 -13 13 -22 42 -27 25 -5
50 -33 42 -46 -3 -5 2 -6 10 -3 11 4 16 0 16 -12 0 -9 3 -14 7 -11 7 8 63 -41
63 -55 0 -5 -4 -6 -10 -3 -5 3 -10 2 -10 -4 0 -16 18 -22 23 -9 3 9 14 2 30
-17 18 -21 22 -32 14 -38 -8 -6 -6 -7 4 -4 18 6 44 -19 82 -80 14 -21 49 -63
78 -94 60 -61 109 -126 88 -114 -8 4 -3 -3 11 -16 14 -13 33 -42 43 -63 13
-28 21 -36 27 -27 6 10 10 8 15 -8 3 -11 11 -21 16 -21 5 0 14 -10 19 -22 13
-31 31 -57 58 -87 12 -14 21 -30 19 -36 -2 -5 5 -18 14 -29 10 -10 17 -22 15
-25 -6 -8 23 -47 32 -44 4 2 7 -3 8 -10 1 -28 16 -56 27 -51 7 2 20 -10 28
-28 31 -63 107 -193 132 -223 13 -16 39 -59 57 -95 18 -36 36 -67 39 -70 14
-10 79 -117 96 -157 11 -24 22 -43 27 -43 4 0 8 -7 8 -15 0 -8 36 -87 80 -174
44 -88 80 -165 80 -171 0 -6 7 -21 15 -34 17 -25 34 -97 42 -168 3 -27 9 -45
14 -42 5 3 9 -2 9 -11 0 -8 14 -40 31 -70 28 -49 57 -146 56 -185 0 -8 12 -45
26 -81 17 -42 27 -85 27 -118 0 -32 6 -62 17 -78 9 -14 18 -38 19 -52 4 -67 4
-67 13 -52 6 10 11 2 16 -25 3 -22 12 -49 19 -62 l12 -23 13 28 c27 56 32 141
19 293 -5 58 -11 149 -12 202 -2 60 -8 103 -16 113 -8 10 -11 33 -7 68 4 42 0
64 -23 117 -15 36 -33 90 -40 120 -16 68 -40 141 -53 157 -5 7 -10 45 -12 85
-3 79 -12 118 -27 118 -6 0 -7 7 -4 16 4 9 -3 38 -15 63 -22 48 -26 59 -54
131 -9 25 -21 52 -26 60 -5 8 -14 26 -19 39 -6 13 -19 36 -30 51 -11 16 -20
36 -20 46 0 10 -8 27 -19 38 -10 12 -63 109 -117 216 -55 107 -101 197 -104
200 -3 3 -13 21 -22 40 -76 153 -115 217 -178 294 -19 24 -51 65 -70 90 -19
26 -69 89 -111 140 -42 51 -78 97 -80 103 -6 15 -59 80 -106 130 -24 24 -43
47 -43 51 -1 8 -70 78 -70 71 0 -5 -245 235 -285 279 -28 31 -159 148 -168
151 -7 2 -40 30 -74 61 -34 32 -82 66 -107 75 -25 10 -46 22 -46 26 0 5 -6 9
-13 9 -8 0 -32 17 -54 38 -58 54 -163 139 -198 161 -17 10 -42 32 -57 49 -26
32 -127 87 -225 124 -31 11 -65 29 -75 38 -11 10 -36 26 -56 36 -20 10 -43 23
-51 29 -7 5 -45 23 -85 41 -67 29 -159 84 -140 84 14 0 -109 57 -151 70 -22 7
-67 25 -100 41 -76 36 -204 89 -230 96 -11 2 -29 9 -40 14 -11 4 -60 22 -110
38 -49 16 -111 38 -137 50 -26 11 -55 20 -65 20 -21 -1 -85 22 -104 37 -22 17
-72 33 -99 33 -51 -1 -177 25 -228 47 -18 8 -42 14 -53 14 -11 0 -29 5 -39 10
-11 6 -45 12 -77 15 -541 38 -627 40 -1008 24z m-920 -589 c-3 -5 -12 -7 -20
-3 -21 7 -19 13 6 13 11 0 18 -4 14 -10z m2818 -107 c-7 -2 -19 -2 -25 0 -7 3
-2 5 12 5 14 0 19 -2 13 -5z m-4106 -409 c-3 -3 -12 -4 -19 -1 -8 3 -5 6 6 6
11 1 17 -2 13 -5z m5223 -188 c0 -3 -4 -8 -10 -11 -5 -3 -10 -1 -10 4 0 6 5
11 10 11 6 0 10 -2 10 -4z m595 -476 c3 -5 1 -10 -4 -10 -6 0 -11 5 -11 10 0
6 2 10 4 10 3 0 8 -4 11 -10z"/>
<path d="M14067 13567 c16 -22 43 -32 43 -17 0 11 -35 40 -49 40 -8 0 -6 -8 6
-23z"/>
<path d="M12325 13344 c-91 -22 -118 -31 -179 -61 -89 -45 -149 -102 -249
-238 -45 -61 -92 -124 -104 -140 -46 -62 -193 -284 -193 -291 0 -4 -8 -17 -18
-28 -10 -12 -47 -67 -83 -124 -35 -56 -71 -113 -79 -127 -28 -44 -115 -170
-121 -175 -6 -5 -147 -220 -253 -387 -28 -43 -102 -157 -165 -253 -64 -96
-120 -182 -126 -192 -5 -9 -41 -64 -80 -120 -38 -57 -75 -113 -82 -123 -142
-234 -210 -342 -392 -615 -119 -178 -218 -330 -221 -336 -20 -45 -171 -220
-307 -355 l-162 -161 -73 7 c-40 4 -78 8 -84 9 -13 2 -62 38 -114 85 -19 17
-43 33 -52 37 -10 3 -18 9 -18 14 0 5 -8 11 -18 15 -11 3 -24 17 -30 30 -6 14
-17 25 -23 25 -16 0 -146 136 -165 173 -8 15 -43 65 -77 110 -59 77 -129 176
-152 214 -14 24 -17 28 -88 123 -35 47 -75 103 -89 125 -48 74 -170 190 -221
210 -65 25 -149 15 -268 -29 -81 -30 -101 -43 -143 -88 -101 -109 -125 -206
-90 -374 42 -202 139 -394 337 -665 132 -180 158 -220 151 -231 -4 -6 -3 -8 3
-5 5 3 84 -87 174 -201 90 -113 194 -242 231 -286 37 -43 64 -84 61 -90 -3 -6
-2 -8 2 -3 5 4 60 -44 124 -106 169 -164 273 -228 456 -283 79 -23 110 -27
252 -29 114 -2 167 -6 178 -15 13 -11 23 -9 58 6 23 10 45 23 49 28 8 11 69
16 62 4 -3 -4 4 -8 15 -8 12 0 20 3 20 8 -5 27 3 52 16 52 8 0 15 -6 15 -12 0
-9 4 -8 10 2 9 13 10 13 10 0 0 -12 2 -12 9 -2 5 8 17 11 34 7 38 -10 66 2 60
24 -3 13 3 23 17 31 12 6 26 25 32 41 5 16 16 29 24 29 8 0 14 5 14 12 0 6 3
8 7 5 7 -8 27 28 37 66 3 15 10 27 14 27 5 0 17 7 28 16 10 8 13 13 7 9 -7 -3
-13 -1 -13 4 0 6 4 11 8 11 13 0 52 36 52 47 0 6 11 22 24 36 13 14 21 28 18
31 -3 3 0 6 6 6 7 0 12 7 12 15 0 8 9 20 20 27 11 7 20 18 20 25 0 7 9 22 21
34 11 11 18 27 15 34 -5 13 30 49 57 58 6 2 11 16 9 30 -1 21 3 27 18 27 13 0
20 7 20 19 0 10 9 21 20 24 29 7 25 25 -7 30 -16 2 -8 4 17 3 43 -1 45 0 48
29 2 17 8 36 14 43 8 9 5 12 -13 12 -22 0 -22 1 -4 13 11 9 15 19 10 26 -5 9
-2 12 11 9 13 -2 40 18 82 58 50 49 62 67 62 92 0 17 5 34 11 38 6 3 9 17 6
30 -3 20 -1 22 14 14 15 -8 18 -5 22 18 3 21 4 19 6 -11 0 -24 5 -36 12 -32 6
4 8 13 5 21 -3 7 0 11 8 8 9 -3 11 5 8 31 -2 19 -8 37 -12 40 -5 3 -7 -3 -6
-12 2 -10 1 -12 -1 -5 -3 6 -9 12 -14 12 -5 0 -1 9 9 20 12 13 17 30 14 45 -2
14 0 25 6 25 6 0 8 8 5 19 -6 25 23 36 37 13 8 -15 11 -15 20 -2 5 8 10 10 10
5 0 -6 -4 -15 -10 -21 -12 -12 4 -39 19 -30 6 4 16 16 22 28 8 15 8 19 0 14
-23 -14 -10 6 24 37 19 17 35 39 35 49 0 9 14 28 30 41 17 14 30 28 30 31 0 3
18 24 41 47 23 23 38 47 35 54 -3 8 3 20 12 27 27 21 43 56 36 83 -5 21 -3 25
16 25 36 0 59 19 66 55 3 19 10 33 14 30 9 -5 40 32 40 47 0 5 -12 8 -27 8
l-28 1 28 20 c15 11 24 25 21 30 -3 6 13 17 36 26 27 11 37 19 28 24 -16 10
-6 20 21 22 11 1 21 7 21 14 0 11 -5 11 -21 3 -19 -11 -20 -10 -10 9 7 12 17
18 26 15 8 -4 15 -1 15 5 0 6 -4 11 -10 11 -5 0 -1 9 10 20 11 11 20 32 20 46
0 14 4 23 10 19 6 -3 10 -1 10 4 0 6 -4 11 -10 11 -17 0 -11 25 10 38 11 7 20
19 20 26 0 8 10 16 22 18 12 2 27 12 33 23 5 11 22 33 38 49 30 32 34 46 13
46 -8 0 -18 5 -22 12 -4 6 -3 8 3 5 6 -4 14 0 17 9 3 8 2 12 -4 9 -16 -10 -12
11 5 25 8 6 18 9 23 6 6 -3 13 5 16 19 7 27 36 35 36 9 0 -13 6 -15 28 -9 15
3 31 10 35 14 11 11 -13 59 -32 64 -11 3 -5 8 17 17 18 7 31 15 28 17 -9 9 43
45 54 38 5 -3 10 -1 10 4 0 6 -7 11 -15 11 -8 0 -15 6 -16 13 0 6 -2 19 -4 28
-3 19 28 93 43 103 7 4 8 -4 1 -26 -12 -42 -12 -61 1 -53 6 3 10 15 10 27 0
14 5 18 16 14 8 -3 24 3 36 14 12 11 24 17 28 15 9 -5 6 73 -4 103 -7 22 7 52
24 52 10 0 23 -47 23 -77 0 -12 3 -20 8 -17 4 2 5 12 2 21 -4 10 -2 14 4 10
18 -11 47 18 38 39 -16 37 -13 46 21 82 19 20 34 40 34 45 0 4 5 5 12 1 7 -4
8 -3 4 5 -4 6 -2 18 4 26 7 8 9 15 5 15 -4 0 -2 7 5 15 7 9 20 13 28 10 9 -3
12 0 9 9 -3 8 1 20 9 26 8 7 14 19 14 28 0 17 37 52 55 52 19 0 65 55 64 76
-1 15 -3 14 -9 -6 -7 -21 -8 -19 -9 18 -1 29 3 42 13 42 17 0 29 41 16 54 -15
15 -12 26 5 20 8 -4 15 -1 15 6 0 14 40 49 58 50 6 0 12 9 12 20 0 17 4 19 26
14 28 -7 52 16 54 51 2 53 6 75 13 75 4 0 7 7 7 15 0 8 5 15 10 15 6 0 10 7
10 15 0 9 14 24 31 33 18 10 32 28 36 45 3 15 10 27 16 27 14 0 36 32 37 52 0
9 9 20 20 23 11 3 20 10 20 15 0 4 9 10 20 13 20 5 30 47 11 47 -5 0 -8 -7 -7
-16 0 -9 -5 -19 -11 -21 -21 -7 -15 16 12 51 14 18 22 36 18 39 -3 4 8 10 26
13 44 9 71 54 71 117 0 33 5 49 15 53 10 4 15 20 15 44 0 24 7 43 20 55 12 10
30 39 41 64 23 51 43 163 30 171 -5 3 -11 19 -14 35 -13 69 -26 112 -40 140
-9 17 -20 42 -26 56 -12 33 -123 130 -181 159 -96 46 -188 70 -293 75 -56 2
-111 2 -122 -1z m-262 -2084 c3 -11 1 -18 -4 -14 -5 3 -9 12 -9 20 0 20 7 17
13 -6z m-733 -1004 c0 -3 -4 -8 -10 -11 -5 -3 -10 -1 -10 4 0 6 5 11 10 11 6
0 10 -2 10 -4z m-420 -586 c0 -5 -4 -10 -10 -10 -5 0 -10 5 -10 10 0 6 5 10
10 10 6 0 10 -4 10 -10z m-790 -1182 c0 -4 -11 -8 -25 -8 -14 0 -25 4 -25 10
0 5 11 9 25 8 14 -1 25 -6 25 -10z"/>
<path d="M7070 13164 c-162 -44 -315 -147 -540 -368 -175 -171 -299 -309 -387
-431 -324 -450 -474 -716 -665 -1179 -94 -228 -163 -498 -240 -941 -6 -33 -17
-91 -24 -128 -24 -113 -46 -429 -47 -662 -1 -272 21 -535 63 -755 5 -25 12
-65 15 -90 11 -74 45 -251 60 -305 7 -27 16 -72 20 -99 3 -27 10 -57 15 -67 6
-10 10 -36 10 -59 0 -23 4 -39 9 -36 8 5 73 -183 87 -252 4 -18 11 -35 15 -38
5 -3 9 -12 9 -21 0 -36 191 -451 293 -638 37 -67 222 -350 292 -445 116 -159
271 -347 402 -489 19 -20 29 -40 25 -49 -4 -10 -1 -13 7 -8 15 10 153 -123
144 -138 -4 -6 -2 -8 2 -3 11 10 56 -33 48 -46 -3 -6 -1 -7 4 -4 6 4 41 -22
79 -57 188 -174 150 -144 417 -332 81 -57 149 -104 152 -104 2 0 25 -15 51
-32 25 -18 53 -37 62 -43 98 -60 129 -78 184 -106 35 -18 88 -47 118 -65 30
-17 100 -51 155 -74 55 -23 126 -55 157 -71 58 -29 115 -52 178 -71 19 -5 40
-14 45 -18 6 -4 34 -13 63 -20 37 -8 52 -17 52 -28 0 -12 3 -13 8 -5 6 10 19
9 55 -5 52 -20 68 -32 43 -32 -10 0 -16 -6 -13 -12 2 -7 10 -12 16 -10 6 1 11
-5 11 -13 0 -8 9 -15 19 -15 11 0 22 -4 25 -9 4 -5 14 -8 23 -7 10 2 33 -1 51
-5 18 -4 46 -4 62 1 23 7 28 5 23 -6 -4 -10 0 -12 11 -8 9 3 13 11 9 18 -4 6
5 3 20 -7 14 -9 30 -17 34 -17 4 0 1 5 -7 10 -13 8 -13 10 2 10 9 0 20 -5 23
-11 4 -6 14 -8 22 -5 8 3 12 2 9 -3 -8 -12 18 -21 55 -21 18 0 28 -4 24 -10
-8 -13 58 -41 105 -45 19 -1 43 -6 53 -10 10 -4 21 -5 24 -1 3 3 13 -3 22 -13
12 -13 37 -19 101 -24 47 -4 94 -8 106 -11 47 -10 130 -19 154 -17 27 3 127 4
148 2 6 0 12 -8 12 -16 0 -16 25 -16 49 -1 10 7 12 5 6 -5 -6 -11 -5 -12 6 -2
20 19 49 16 49 -5 0 -10 6 -19 14 -19 7 0 11 7 9 17 -3 12 4 16 31 18 26 2 35
-2 38 -14 4 -23 64 -29 72 -7 5 13 4 14 -9 3 -10 -8 -15 -9 -15 -1 0 14 -11
13 153 15 75 1 137 -2 137 -6 0 -4 34 -8 75 -8 41 0 75 4 75 9 0 5 60 9 133
10 72 0 135 0 140 1 4 0 7 6 7 14 0 23 135 37 142 14 3 -8 11 -5 25 9 15 15
39 22 89 26 94 8 144 18 144 27 0 4 19 10 43 13 23 3 65 16 92 28 27 12 63 23
80 25 62 6 105 16 105 26 0 5 4 7 9 3 5 -3 12 -2 15 3 2 4 19 9 37 10 18 2 36
6 39 11 12 18 51 31 94 31 34 0 46 4 46 15 0 9 9 15 25 15 14 0 25 4 25 9 0 8
29 19 73 28 24 4 131 64 135 74 2 5 17 9 32 9 16 0 53 13 82 29 29 15 71 31
93 35 76 11 115 26 116 44 0 14 2 13 9 -3 5 -11 9 -14 9 -7 2 26 51 69 74 65
16 -3 33 6 60 37 22 22 67 54 103 71 35 17 64 34 64 39 0 4 18 11 41 15 23 4
45 15 52 26 6 10 18 19 26 19 8 0 11 7 8 20 -3 11 -1 20 4 20 5 0 9 -4 9 -10
0 -16 50 -12 56 5 10 25 74 90 74 74 0 -8 3 -10 8 -4 4 6 16 15 26 21 11 6 24
19 30 30 15 26 27 34 54 34 12 0 25 6 28 14 3 8 22 21 42 29 37 15 152 126
152 146 0 6 7 11 15 11 8 0 15 9 15 20 0 14 7 20 23 21 15 1 17 3 5 6 -12 3 7
28 75 101 117 122 169 172 177 167 4 -2 6 6 6 18 -1 15 5 22 17 21 9 -1 17 2
17 7 0 5 9 9 19 9 10 0 21 7 25 15 3 8 17 20 31 25 14 5 25 16 25 24 0 8 14
19 30 25 24 8 30 16 30 40 0 17 11 42 25 59 14 17 25 33 25 37 0 4 9 17 20 29
66 72 80 89 80 98 0 5 5 6 12 2 7 -4 8 -3 4 5 -4 7 2 19 14 29 12 10 23 29 23
44 1 14 5 24 9 21 5 -2 13 7 20 21 6 14 16 26 21 26 6 0 7 3 4 6 -4 4 2 19 13
34 11 16 20 35 20 44 0 8 10 26 23 40 12 13 31 41 42 63 11 21 28 44 37 51 10
7 18 18 18 23 0 10 10 24 48 64 12 13 22 35 22 48 0 13 9 32 20 42 17 15 33
61 31 88 -1 4 8 17 19 30 11 12 27 30 34 39 8 9 16 43 18 75 2 41 7 58 17 58
15 0 41 73 41 118 0 15 6 40 14 55 10 20 13 68 12 185 -1 133 -4 161 -17 170
-9 7 -16 21 -16 32 1 53 -4 75 -17 75 -8 0 -19 14 -25 32 -6 17 -18 39 -26 47
-51 56 -85 100 -85 111 0 6 -6 10 -12 7 -7 -2 -45 11 -84 28 -98 45 -154 55
-298 55 -138 0 -191 -12 -264 -59 -124 -79 -163 -137 -475 -691 -256 -456
-609 -860 -972 -1113 -253 -176 -387 -261 -520 -328 -216 -108 -324 -148 -605
-220 -165 -43 -170 -44 -270 -60 -36 -6 -113 -19 -172 -31 -97 -18 -135 -20
-425 -16 -352 5 -509 20 -733 69 -74 17 -146 32 -160 34 -42 8 -143 36 -180
51 -19 8 -55 18 -80 23 -109 23 -452 171 -520 226 -8 6 -36 20 -63 29 -26 10
-53 23 -60 30 -7 7 -24 19 -37 26 -23 11 -147 90 -210 133 -102 69 -120 83
-120 89 0 5 -6 8 -13 8 -7 0 -27 14 -45 30 -18 17 -35 30 -37 30 -2 0 -46 44
-97 97 -112 116 -156 160 -197 193 -40 33 -155 149 -159 161 -2 5 -8 9 -14 9
-6 0 -21 12 -34 26 -14 14 -33 26 -43 27 -11 1 -17 5 -15 9 3 5 11 5 17 2 7
-4 -10 13 -37 37 -28 24 -51 42 -52 39 -1 -3 -13 9 -25 25 -13 17 -34 38 -46
48 -13 10 -23 24 -23 32 0 7 -7 18 -15 25 -9 7 -13 20 -10 29 3 8 3 12 -1 8
-11 -11 -43 23 -37 39 3 8 -1 14 -11 14 -9 0 -16 5 -16 10 0 6 -9 19 -20 30
-12 12 -18 26 -14 33 4 7 3 9 -1 4 -5 -4 -20 12 -33 35 -14 24 -33 52 -43 63
-25 28 -115 177 -140 231 -11 25 -17 50 -13 56 4 6 3 8 -3 5 -5 -3 -29 37 -53
91 -24 53 -55 124 -70 158 -30 65 -98 259 -110 311 -5 19 -3 36 4 44 8 9 8 10
-2 5 -14 -8 -26 19 -36 82 -4 26 -2 42 4 42 5 0 9 19 9 43 -1 23 -3 34 -6 25
-2 -10 -9 -18 -14 -18 -6 0 -5 -9 1 -22 10 -22 10 -22 -4 -4 -15 18 -30 82
-39 157 -3 20 -7 41 -11 47 -3 5 -17 101 -32 213 -21 172 -26 247 -26 480 -1
151 3 282 8 290 9 15 13 49 13 111 0 20 5 63 10 95 6 32 15 85 20 117 6 33 14
62 18 65 5 3 9 24 11 46 2 22 12 66 23 99 10 32 16 63 12 69 -3 6 -1 7 5 3 7
-4 12 -4 13 1 2 21 8 45 13 50 12 12 28 -12 24 -37 -3 -16 1 -27 8 -27 7 0 10
6 7 13 -3 7 5 27 16 43 23 32 27 51 11 51 -6 0 -10 -6 -8 -14 2 -8 -1 -15 -7
-15 -5 0 -9 10 -7 21 2 17 0 19 -13 8 -18 -15 -19 -7 -4 23 9 19 7 18 -10 -3
-11 -14 -21 -21 -21 -16 0 16 31 45 44 40 7 -3 32 15 56 40 40 42 44 50 45 99
1 32 8 63 18 78 9 13 17 33 17 45 0 12 5 24 11 26 7 2 13 22 14 43 3 55 4 59
12 52 6 -7 33 45 48 92 5 17 3 20 -11 14 -14 -5 -15 -3 -6 14 6 11 8 23 5 27
-3 3 -1 6 6 6 6 0 16 10 20 23 l9 22 10 -25 c8 -18 11 -20 11 -7 1 9 8 17 16
17 8 0 15 9 15 20 0 11 5 20 10 20 6 0 10 7 10 15 0 8 -4 15 -10 15 -21 0 -9
31 15 40 14 5 25 13 25 18 0 4 16 25 35 45 19 20 35 46 35 58 0 11 11 30 25
43 14 13 25 28 25 35 0 6 4 11 10 11 16 0 25 71 10 80 -10 6 -9 12 4 26 15 14
19 15 26 4 6 -10 10 -7 16 13 8 35 -1 45 -26 29 -11 -7 -20 -8 -20 -3 0 5 16
19 35 31 27 17 35 28 35 51 0 16 5 29 10 29 6 0 10 7 10 15 0 14 -13 20 -35
15 -5 -1 -7 2 -3 6 4 4 20 8 35 9 16 2 35 4 43 6 19 5 30 41 16 51 -7 5 -4 8
7 8 9 0 17 7 17 15 0 8 3 14 8 14 23 -4 52 2 48 10 -3 5 1 11 9 15 8 3 15 15
15 26 0 12 5 18 10 15 6 -3 10 -1 10 4 0 6 7 11 15 11 19 0 95 78 95 97 0 8 5
11 10 8 6 -3 10 -2 10 3 0 5 18 15 41 22 37 13 64 43 53 61 -2 4 7 10 20 13
17 4 23 11 20 23 -3 12 10 32 35 58 23 21 41 45 41 52 0 8 6 16 14 19 8 3 13
14 11 25 -2 12 4 24 16 32 10 6 19 23 19 37 1 23 2 24 14 7 12 -16 14 -16 20
-2 3 9 2 13 -4 10 -6 -3 -10 -1 -10 4 0 6 7 11 15 11 8 0 15 -5 15 -12 0 -6 3
-8 6 -5 4 4 1 13 -6 22 -8 10 -9 15 -2 15 6 0 9 7 6 15 -4 8 -1 15 5 15 6 0
11 6 11 13 0 8 11 24 25 37 13 12 22 27 19 31 -2 4 4 13 15 19 22 11 42 84 31
115 -4 11 -11 51 -15 90 -4 38 -13 79 -21 90 -8 10 -14 27 -14 37 0 17 -49
128 -61 138 -3 3 -14 20 -23 38 -43 84 -101 127 -249 181 -70 26 -240 28 -327
5z m-380 -2129 c0 -6 -9 -11 -20 -12 -19 -2 -26 8 -15 19 9 9 35 5 35 -7z
m-37 -55 c-3 -12 -8 -19 -11 -16 -5 6 5 36 12 36 2 0 2 -9 -1 -20z m1990
-6167 c-7 -2 -19 -2 -25 0 -7 3 -2 5 12 5 14 0 19 -2 13 -5z m1554 -199 c-3
-3 -12 -4 -19 -1 -8 3 -5 6 6 6 11 1 17 -2 13 -5z"/>
<path d="M6337 9870 c-11 -30 -14 -69 -6 -64 5 3 9 11 9 19 0 7 4 15 9 17 4 2
5 12 1 23 -6 16 -9 17 -13 5z"/>
<path d="M10965 9680 c3 -5 -1 -10 -9 -10 -9 0 -16 -5 -16 -10 0 -7 7 -7 20 0
17 9 20 30 4 30 -3 0 -2 -4 1 -10z"/>
<path d="M10962 9620 c0 -14 2 -19 5 -12 2 6 2 18 0 25 -3 6 -5 1 -5 -13z"/>
<path d="M5306 8144 c-3 -9 -6 -24 -6 -34 0 -26 31 -90 44 -90 6 0 5 5 -2 12
-7 7 -12 36 -12 64 0 53 -13 78 -24 48z"/>
<path d="M5398 7792 c5 -38 42 -47 42 -11 0 12 -5 19 -12 16 -7 -2 -18 3 -24
11 -9 12 -10 8 -6 -16z"/>
<path d="M6976 7293 c-6 -14 -5 -15 5 -6 7 7 10 15 7 18 -3 3 -9 -2 -12 -12z"/>
<path d="M8250 4920 c-13 -8 -13 -10 2 -10 9 0 20 5 23 10 8 13 -5 13 -25 0z"/>
<path d="M8290 4900 c0 -5 7 -7 15 -4 8 4 15 8 15 10 0 2 -7 4 -15 4 -8 0 -15
-4 -15 -10z"/>
<path d="M9618 4593 c7 -3 16 -2 19 1 4 3 -2 6 -13 5 -11 0 -14 -3 -6 -6z"/>
<path d="M9995 4580 c-3 -5 -13 -6 -23 -3 -9 3 -14 3 -11 -1 11 -12 48 -15 55
-4 4 7 10 5 16 -3 8 -12 9 -12 6 0 -5 16 -35 24 -43 11z"/>
</g>
</svg>
